<svg xmlns="http://www.w3.org/2000/svg" width="1200" height="760">
<rect width="100%" height="100%" fill="white"/>
<text x="600" y="42" text-anchor="middle" font-size="28" font-family="Arial">China Imports from African Countries (2023, USD billions) — Descending</text>
<line x1="300" y1="90" x2="300" y2="710" stroke="#333"/>
<rect x="300" y="90" width="820.0" height="38" fill="#2563eb"/>
<text x="290" y="115" text-anchor="end" font-size="18" font-family="Arial">Angola</text>
<text x="1128.0" y="115" font-size="16" font-family="Arial">18.91B</text>
<rect x="300" y="140" width="278.1" height="38" fill="#2563eb"/>
<text x="290" y="165" text-anchor="end" font-size="18" font-family="Arial">Guinea</text>
<text x="586.1" y="165" font-size="16" font-family="Arial">6.41B</text>
<rect x="300" y="190" width="236.4" height="38" fill="#2563eb"/>
<text x="290" y="215" text-anchor="end" font-size="18" font-family="Arial">Congo</text>
<text x="544.4" y="215" font-size="16" font-family="Arial">5.45B</text>
<rect x="300" y="240" width="186.3" height="38" fill="#2563eb"/>
<text x="290" y="265" text-anchor="end" font-size="18" font-family="Arial">Zambia</text>
<text x="494.3" y="265" font-size="16" font-family="Arial">4.30B</text>
<rect x="300" y="290" width="133.3" height="38" fill="#2563eb"/>
<text x="290" y="315" text-anchor="end" font-size="18" font-family="Arial">Gabon</text>
<text x="441.3" y="315" font-size="16" font-family="Arial">3.07B</text>
<rect x="300" y="340" width="103.0" height="38" fill="#2563eb"/>
<text x="290" y="365" text-anchor="end" font-size="18" font-family="Arial">Nigeria</text>
<text x="411.0" y="365" font-size="16" font-family="Arial">2.37B</text>
<rect x="300" y="390" width="95.4" height="38" fill="#2563eb"/>
<text x="290" y="415" text-anchor="end" font-size="18" font-family="Arial">Libya</text>
<text x="403.4" y="415" font-size="16" font-family="Arial">2.20B</text>
<rect x="300" y="440" width="78.9" height="38" fill="#2563eb"/>
<text x="290" y="465" text-anchor="end" font-size="18" font-family="Arial">Ghana</text>
<text x="386.9" y="465" font-size="16" font-family="Arial">1.82B</text>
<rect x="300" y="490" width="76.8" height="38" fill="#2563eb"/>
<text x="290" y="515" text-anchor="end" font-size="18" font-family="Arial">Mozambique</text>
<text x="384.8" y="515" font-size="16" font-family="Arial">1.77B</text>
<rect x="300" y="540" width="73.3" height="38" fill="#2563eb"/>
<text x="290" y="565" text-anchor="end" font-size="18" font-family="Arial">Zimbabwe</text>
<text x="381.3" y="565" font-size="16" font-family="Arial">1.69B</text>
<rect x="300" y="590" width="51.6" height="38" fill="#2563eb"/>
<text x="290" y="615" text-anchor="end" font-size="18" font-family="Arial">Mauritania</text>
<text x="359.6" y="615" font-size="16" font-family="Arial">1.19B</text>
<rect x="300" y="640" width="42.5" height="38" fill="#2563eb"/>
<text x="290" y="665" text-anchor="end" font-size="18" font-family="Arial">Morocco</text>
<text x="350.5" y="665" font-size="16" font-family="Arial">0.98B</text>
</svg>