<svg xmlns="http://www.w3.org/2000/svg" width="1200" height="760">
<rect width="100%" height="100%" fill="white"/>
<text x="600" y="42" text-anchor="middle" font-size="28" font-family="Arial">China Imports from African Countries (2023, USD billions)</text>
<line x1="300" y1="90" x2="300" y2="710" stroke="#333"/>
<rect x="300" y="90" width="43.5" height="38" fill="#3b82f6"/>
<text x="290" y="115" text-anchor="end" font-size="18" font-family="Arial">Morocco</text>
<text x="351.5" y="115" font-size="16" font-family="Arial">0.98B</text>
<rect x="300" y="140" width="52.8" height="38" fill="#3b82f6"/>
<text x="290" y="165" text-anchor="end" font-size="18" font-family="Arial">Mauritania</text>
<text x="360.8" y="165" font-size="16" font-family="Arial">1.19B</text>
<rect x="300" y="190" width="75.0" height="38" fill="#3b82f6"/>
<text x="290" y="215" text-anchor="end" font-size="18" font-family="Arial">Zimbabwe</text>
<text x="383.0" y="215" font-size="16" font-family="Arial">1.69B</text>
<rect x="300" y="240" width="78.7" height="38" fill="#3b82f6"/>
<text x="290" y="265" text-anchor="end" font-size="18" font-family="Arial">Mozambique</text>
<text x="386.7" y="265" font-size="16" font-family="Arial">1.77B</text>
<rect x="300" y="290" width="80.9" height="38" fill="#3b82f6"/>
<text x="290" y="315" text-anchor="end" font-size="18" font-family="Arial">Ghana</text>
<text x="388.9" y="315" font-size="16" font-family="Arial">1.82B</text>
<rect x="300" y="340" width="97.7" height="38" fill="#3b82f6"/>
<text x="290" y="365" text-anchor="end" font-size="18" font-family="Arial">Libya</text>
<text x="405.7" y="365" font-size="16" font-family="Arial">2.20B</text>
<rect x="300" y="390" width="105.5" height="38" fill="#3b82f6"/>
<text x="290" y="415" text-anchor="end" font-size="18" font-family="Arial">Nigeria</text>
<text x="413.5" y="415" font-size="16" font-family="Arial">2.37B</text>
<rect x="300" y="440" width="136.5" height="38" fill="#3b82f6"/>
<text x="290" y="465" text-anchor="end" font-size="18" font-family="Arial">Gabon</text>
<text x="444.5" y="465" font-size="16" font-family="Arial">3.07B</text>
<rect x="300" y="490" width="190.8" height="38" fill="#3b82f6"/>
<text x="290" y="515" text-anchor="end" font-size="18" font-family="Arial">Zambia</text>
<text x="498.8" y="515" font-size="16" font-family="Arial">4.30B</text>
<rect x="300" y="540" width="242.2" height="38" fill="#3b82f6"/>
<text x="290" y="565" text-anchor="end" font-size="18" font-family="Arial">Congo</text>
<text x="550.2" y="565" font-size="16" font-family="Arial">5.45B</text>
<rect x="300" y="590" width="284.9" height="38" fill="#3b82f6"/>
<text x="290" y="615" text-anchor="end" font-size="18" font-family="Arial">Guinea</text>
<text x="592.9" y="615" font-size="16" font-family="Arial">6.41B</text>
<rect x="300" y="640" width="840.0" height="38" fill="#3b82f6"/>
<text x="290" y="665" text-anchor="end" font-size="18" font-family="Arial">Angola</text>
<text x="1148.0" y="665" font-size="16" font-family="Arial">18.91B</text>
</svg>